<svg xmlns="http://www.w3.org/2000/svg" viewBox="0 0 960 1200">
  <defs>
    <linearGradient id="bg" x1="0" y1="0" x2="1" y2="1"><stop stop-color="#d2c7b2"/><stop offset="1" stop-color="#596d79"/></linearGradient>
    <linearGradient id="cloth" x1="0" y1="0" x2="0" y2="1"><stop stop-color="#adc0c4"/><stop offset=".5" stop-color="#6d8d99"/><stop offset="1" stop-color="#38576a"/></linearGradient>
    <pattern id="stitch" width="44" height="38" patternUnits="userSpaceOnUse"><path d="M3 18 L13 7 L23 18 L33 7 L43 18 M3 35 L13 24 L23 35 L33 24 L43 35" fill="none" stroke="#dbe4df" stroke-opacity=".52" stroke-width="6" stroke-linecap="round" stroke-linejoin="round"/></pattern>
    <filter id="shadow" x="-30%" y="-30%" width="160%" height="180%"><feDropShadow dx="0" dy="34" stdDeviation="27" flood-color="#213b49" flood-opacity=".45"/></filter>
  </defs>
  <rect width="960" height="1200" fill="url(#bg)"/>
  <path d="M0 302 Q264 194 480 302 T960 280 V0 H0Z" fill="#e9dfcc" opacity=".25"/>
  <path d="M0 930 Q290 855 520 948 T960 918 V1200 H0Z" fill="#3a515e" opacity=".35"/>
  <g filter="url(#shadow)">
    <path d="M218 208 Q494 256 748 190 L785 890 Q474 1031 170 875Z" fill="url(#cloth)"/>
    <path d="M218 208 Q494 256 748 190 L785 890 Q474 1031 170 875Z" fill="url(#stitch)"/>
    <path d="M226 312 Q504 358 753 290 M214 482 Q508 531 765 460 M200 655 Q500 718 774 625 M184 816 Q480 902 783 790" fill="none" stroke="#e8c0c9" stroke-width="32" opacity=".92"/>
    <path d="M190 875 L165 1044 M231 889 L219 1070 M276 906 L274 1080 M737 903 L746 1072 M694 918 L690 1084 M651 931 L638 1075" fill="none" stroke="#547785" stroke-width="12" stroke-linecap="round"/>
  </g>
</svg>
